<svg width="271" height="41" viewBox="0 0 271 41" fill="none" xmlns="http://www.w3.org/2000/svg">
<path d="M0.619141 40.1704L0.619141 2.04412H7.68691L7.68691 17.4697L24.403 17.4697V2.04412H31.4708L31.4708 40.1704H24.403V24.2804H7.68691L7.68691 40.1704H0.619141Z" fill="#060509"/>
<path d="M57.2129 20.1533C55.6136 18.5022 53.7049 17.6767 51.3835 17.6767C49.0615 17.6767 47.1528 18.5022 45.553 20.1533C43.9541 21.8043 43.1798 23.8165 43.1798 26.1379C43.1798 28.5105 43.9541 30.5232 45.553 32.1737C47.1528 33.8248 49.0615 34.6503 51.3835 34.6503C53.7049 34.6503 55.6136 33.8248 57.2129 32.1737C58.8123 30.5232 59.5861 28.5105 59.5861 26.1379C59.5861 23.8165 58.8123 21.8043 57.2129 20.1533ZM40.6003 15.7163C43.4379 12.8786 46.9977 11.4344 51.3835 11.4344C55.7682 11.4344 59.328 12.8786 62.1144 15.7163C64.9516 18.5539 66.3445 22.0102 66.3445 26.1379C66.3445 30.3168 64.9516 33.8248 62.1144 36.6625C59.328 39.4996 55.7682 40.8926 51.3835 40.8926C46.9977 40.8926 43.4379 39.4996 40.6003 36.6625C37.8148 33.8248 36.4219 30.3168 36.4219 26.1379C36.4219 22.0102 37.8148 18.5539 40.6003 15.7163Z" fill="#060509"/>
<path d="M70.6797 40.167V12.153H77.1283V16.0221C78.8311 12.978 81.4619 11.4304 84.9187 11.4304C86.1052 11.4304 87.2401 11.6368 88.272 11.9979L87.7046 18.447C86.5692 18.0859 85.4861 17.8795 84.4542 17.8795C80.2753 17.8795 77.3864 20.6655 77.3864 26.4949V40.167H70.6797Z" fill="#060509"/>
<path d="M97.9145 40.1694H91.156V12.1555H97.9145V40.1694ZM90.2793 4.57097C90.2793 2.14608 92.1885 0.340851 94.6128 0.340851C97.0377 0.340851 98.8435 2.14608 98.8435 4.57097C98.8435 7.04758 97.0377 8.80158 94.6128 8.80158C92.1367 8.80158 90.2793 7.04758 90.2793 4.57097Z" fill="#060509"/>
<path d="M111.121 34.5454H125.927V40.1689H101.938V35.6285L116.435 17.8298H102.66V12.2062L125.412 12.2062V16.6432L111.121 34.5454Z" fill="#060509"/>
<path d="M148.939 20.1494C147.34 18.4983 145.431 17.6727 143.11 17.6727C140.788 17.6727 138.879 18.4983 137.28 20.1494C135.681 21.8004 134.906 23.8125 134.906 26.134C134.906 28.5066 135.681 30.5193 137.28 32.1698C138.879 33.8209 140.788 34.6464 143.11 34.6464C145.431 34.6464 147.34 33.8209 148.939 32.1698C150.538 30.5193 151.313 28.5066 151.313 26.134C151.313 23.8125 150.538 21.8004 148.939 20.1494ZM132.327 15.7124C135.164 12.8747 138.724 11.4305 143.11 11.4305C147.495 11.4305 151.055 12.8747 153.84 15.7124C156.678 18.55 158.071 22.0063 158.071 26.134C158.071 30.3129 156.678 33.8209 153.84 36.6586C151.055 39.4957 147.495 40.8887 143.11 40.8887C138.724 40.8887 135.164 39.4957 132.327 36.6586C129.541 33.8209 128.148 30.3129 128.148 26.134C128.148 22.0063 129.541 18.55 132.327 15.7124Z" fill="#060509"/>
<path d="M162.402 40.1685V12.1545H169.006V16.0753C170.502 13.2376 173.752 11.4319 177.828 11.4319C180.872 11.4319 183.503 12.4638 185.618 14.4759C187.733 16.488 188.817 19.3252 188.817 23.0913V40.1685H182.059V24.9488C182.059 20.2542 179.633 17.5712 175.919 17.5712C171.947 17.5712 169.109 20.6669 169.109 25.0517V40.1685H162.402Z" fill="#060509"/>
<path d="M198.218 35.2167C194.503 31.5023 192.646 26.8071 192.646 21.1323C192.646 15.4058 194.607 10.659 198.476 6.94508C202.346 3.23017 207.144 1.37271 212.767 1.37271C218.958 1.37271 224.788 4.00398 228.244 7.77011L223.549 12.7228C220.608 9.67929 216.997 8.18288 212.767 8.18288C209.104 8.18288 206.008 9.42118 203.532 11.8461C201.107 14.2704 199.869 17.3662 199.869 21.0806C199.869 24.7438 201.055 27.7878 203.48 30.2639C205.905 32.74 209.001 33.9789 212.664 33.9789C216.739 33.9789 220.815 32.2243 223.343 29.5931V23.8153L212.303 23.8153V17.6243L229.843 17.6243V33.0499C224.994 38.1573 219.216 40.7373 212.457 40.7373C206.73 40.7373 201.984 38.8798 198.218 35.2167Z" fill="#060509"/>
<path d="M265.014 7.65366C266.391 25.7004 253.373 36.0383 247.758 39.6275C249.19 39.9769 250.685 40.1665 252.224 40.1665C262.594 40.1665 270.999 31.761 270.999 21.3921C270.999 15.9668 268.694 11.0811 265.014 7.65366Z" fill="#034AFE"/>
<path d="M263.345 6.26967C260.232 3.97714 256.388 2.62068 252.226 2.62068C241.857 2.62068 233.451 11.0261 233.451 21.3945C233.451 25.5714 234.817 29.4283 237.123 32.5469C254.459 26.2306 261.113 12.6209 263.345 6.26967Z" fill="#034AFE"/>
</svg>
