<svg width="58" height="58" viewBox="0 0 58 58" fill="none" xmlns="http://www.w3.org/2000/svg">
<g clip-path="url(#clip0_449_8354)">
<path d="M13.501 18.6592H1.85736C1.3406 18.6592 0.921875 19.0781 0.921875 19.5947V57.0005C0.921875 57.5173 1.3406 57.936 1.85736 57.936H13.501C14.0177 57.936 14.4364 57.5173 14.4364 57.0005V19.5947C14.4364 19.0781 14.0177 18.6592 13.501 18.6592Z" fill="#2876A2"/>
<path d="M7.68332 0.0639648C3.4467 0.0639648 0 3.50692 0 7.73886C0 11.9727 3.4467 15.4169 7.68332 15.4169C11.9166 15.4169 15.3605 11.9725 15.3605 7.73886C15.3606 3.50692 11.9166 0.0639648 7.68332 0.0639648Z" fill="#2876A2"/>
<path d="M43.1172 17.7295C38.4408 17.7295 34.9838 19.7398 32.887 22.0241V19.5947C32.887 19.0781 32.4683 18.6592 31.9515 18.6592H20.8007C20.284 18.6592 19.8652 19.0781 19.8652 19.5947V57.0005C19.8652 57.5173 20.284 57.936 20.8007 57.936H32.4189C32.9356 57.936 33.3543 57.5173 33.3543 57.0005V38.4933C33.3543 32.2568 35.0483 29.8272 39.3957 29.8272C44.1304 29.8272 44.5066 33.7221 44.5066 38.8142V57.0007C44.5066 57.5175 44.9254 57.9362 45.4421 57.9362H57.0646C57.5813 57.9362 58 57.5175 58 57.0007V36.4829C58 27.2095 56.2318 17.7295 43.1172 17.7295Z" fill="#2876A2"/>
</g>
<defs>
<clipPath id="clip0_449_8354">
<rect width="58" height="58" fill="white"/>
</clipPath>
</defs>
</svg>
