<svg width="119" height="40" viewBox="0 0 119 40" fill="none" xmlns="http://www.w3.org/2000/svg">
<g opacity="0.67">
<path d="M92.7718 20.7409C92.8634 21.4643 92.6662 23.3224 92.6662 23.3224C92.159 23.5423 91.8844 23.6132 91.659 23.7692C87.6512 26.4855 83.1716 28.0316 78.5159 29.1309C67.6478 31.7054 61.3908 33.3721 50.2481 34.2231C38.2883 35.1451 26.3355 35.0742 14.3898 34.0529C13.5375 33.982 12.6853 33.8614 11.833 33.7621C11.826 33.6487 11.826 33.5281 11.8189 33.4075C12.1641 33.365 12.5092 33.2728 12.8543 33.2728C23.7717 33.3366 34.682 33.2231 45.5642 32.3082C56.7985 31.3721 63.2386 30.0813 74.2053 27.3295C77.9524 26.3862 81.6502 25.2018 85.3269 23.9962C86.6511 23.5635 87.9048 22.8472 89.0811 22.0884C90.7151 21.0174 90.7433 20.1309 89.1374 18.9607C87.9118 18.0671 86.5665 17.2799 85.179 16.6841C78.5088 13.8401 71.5851 11.8401 64.4994 10.3508C53.3425 8.01745 46.8179 7.40752 35.4568 8.12383C32.2379 8.3295 29.012 8.40043 25.7932 8.56355C24.1239 8.64865 23.9478 8.82596 23.6097 10.4926C22.7152 14.9536 21.8347 19.4146 20.905 23.8614C20.6585 25.0387 20.25 26.1806 19.7287 27.294C20.2288 21.2302 20.9543 15.216 21.1586 8.99617C20.4049 8.99617 19.8344 8.94653 19.278 9.01036C13.8545 9.63447 8.43807 10.287 3.02165 10.9182C2.0426 11.0316 1.05652 11.0813 0 10.8472C0.331043 10.7054 0.655042 10.5068 1.00722 10.4288C13.2417 7.72667 25.61 6.08837 38.1404 5.67702C46.2967 5.40752 49.7011 5.39333 57.8151 6.40752C67.8873 7.67702 77.5509 10.521 86.9398 14.3721C88.0245 14.8118 89.074 15.3579 90.0671 15.9891C90.9969 16.5777 91.821 17.3366 92.9338 18.2089C92.9338 18.2089 92.6803 20.0174 92.7718 20.7409Z" fill="#888888" fill-opacity="0.35"/>
<path d="M108.599 33.4503C108.578 34.3226 108 34.8616 107.134 34.8261C106.303 34.7907 105.676 34.1453 105.704 33.3652C105.732 32.5708 106.394 31.968 107.218 31.9822C108.064 31.9964 108.62 32.585 108.599 33.4503Z" fill="#888888" fill-opacity="0.35"/>
</g>
<path opacity="0.67" d="M96.222 14.911C96.1939 15.5634 96.1446 16.2088 96.1375 16.8613C96.1375 18.2301 96.3277 18.4287 97.6589 18.301C100.99 17.9748 104.315 17.6202 107.639 17.2868C107.985 17.2514 108.33 17.2372 108.759 17.4287C108.513 17.5563 108.28 17.7407 108.02 17.7975C104.639 18.5422 101.251 19.2656 97.8632 19.989C95.9755 20.3932 95.9544 20.45 95.6867 22.379C95.0176 27.2301 94.3485 32.0883 93.5878 36.9251C93.4258 37.9961 92.9046 39.0032 92.32 40.0032C91.7917 37.2443 92.003 34.5209 92.1509 31.7975C92.2988 29.0457 92.4819 26.301 92.6651 23.3223C92.6651 23.3223 92.8623 21.4641 92.7707 20.7407C92.6792 20.0173 92.9327 18.2088 92.9327 18.2088C93.0947 17.4145 93.2638 16.7975 93.3413 16.1663C93.7075 12.8755 94.0597 9.58471 94.4048 6.29393C94.5739 4.72656 94.4048 4.56344 92.8271 4.59181C91.6579 4.62018 90.4816 4.66273 89.3124 4.64855C88.8968 4.64145 88.4883 4.47124 88.0798 4.37195C88.0587 4.2372 88.0446 4.09535 88.0234 3.9606C88.3897 3.75493 88.7348 3.45706 89.1222 3.35067C90.4253 3.00316 91.7424 2.67691 93.0666 2.4216C94.2076 2.20174 95.25 1.88259 95.6515 0.613085C96.2502 0.939326 96.708 1.31521 97.2222 1.45706C97.7152 1.58472 98.2717 1.49252 98.7929 1.44996C104.583 0.974787 110.372 0.485425 116.162 0.0173399C116.838 -0.0323054 117.521 0.0102477 118.247 0.336489C117.733 0.485425 117.226 0.669822 116.704 0.769113C110.879 1.83294 105.047 2.88259 99.2155 3.93933C98.9267 3.98897 98.6309 4.03152 98.3492 4.09535C96.8489 4.43578 96.6094 4.6911 96.546 6.2372C96.4263 9.12372 96.3277 12.0173 96.222 14.911Z" fill="#888888" fill-opacity="0.35"/>
</svg>
