<svg width="36" height="36" viewBox="0 0 36 36" fill="none" xmlns="http://www.w3.org/2000/svg">
<path d="M29.0722 9.88791L24.295 14.6326C23.5439 13.8867 22.77 13.5459 22.1867 13.7011C21.7749 13.8109 21.4356 14.1707 21.3098 14.644C21.0696 15.5263 21.5576 16.6547 22.648 17.7377C20.0478 15.1552 17.1197 14.2313 14.5195 14.4395C14.5615 13.9245 14.6492 13.4133 14.7864 12.9097C15.5337 10.1303 17.703 7.95291 20.4405 7.22207C23.4181 6.42687 26.5673 7.40005 29.0722 9.88791Z" fill="#FFB600"/>
<path d="M22.6474 17.7339L17.8702 22.4786C15.4682 20.093 14.294 17.2303 14.5189 14.4357C17.1191 14.2236 20.0472 15.1514 22.6474 17.7339Z" fill="white"/>
<path d="M17.8702 22.4789C16.2423 20.8619 14.782 20.843 14.1072 21.5133C13.4858 22.1305 13.726 23.1037 14.7439 24.1147L9.97054 28.8594C5.76525 24.6827 6.46677 19.6161 9.33384 16.7647C10.6492 15.4583 12.4831 14.595 14.519 14.4321C14.294 17.2305 15.4683 20.0932 17.8702 22.4789Z" fill="#007AFF"/>
<path d="M22.6473 17.7341L26.3112 21.3731L23.9283 23.7436L21.5378 26.1217L17.8701 22.4789L22.6473 17.7341Z" fill="#007AFF"/>
</svg>
