<svg width="36" height="36" viewBox="0 0 36 36" fill="none" xmlns="http://www.w3.org/2000/svg">
<path d="M29.0004 9.88791L24.2232 14.6326C23.4722 13.8867 22.6982 13.5459 22.1149 13.7011C21.7031 13.8109 21.3638 14.1707 21.238 14.644C20.9978 15.5263 21.4858 16.6547 22.5762 17.7377C19.976 15.1552 17.0479 14.2313 14.4478 14.4395C14.4897 13.9245 14.5774 13.4133 14.7146 12.9097C15.4619 10.1303 17.6313 7.95291 20.3687 7.22207C23.3463 6.42687 26.4955 7.40005 29.0004 9.88791Z" fill="#FFB600"/>
<path d="M22.5756 17.7339L17.7984 22.4786C15.3965 20.093 14.2222 17.2303 14.4471 14.4357C17.0473 14.2236 19.9754 15.1514 22.5756 17.7339Z" fill="black"/>
<path d="M17.7985 22.4789C16.1705 20.8619 14.7103 20.843 14.0354 21.5133C13.414 22.1305 13.6542 23.1037 14.6721 24.1147L9.89876 28.8594C5.69348 24.6827 6.39499 19.6161 9.26206 16.7647C10.5774 15.4583 12.4113 14.595 14.4472 14.4321C14.2223 17.2305 15.3965 20.0932 17.7985 22.4789Z" fill="#007AFF"/>
<path d="M22.5755 17.7341L26.2394 21.3731L23.8565 23.7436L21.4661 26.1217L17.7983 22.4789L22.5755 17.7341Z" fill="#007AFF"/>
</svg>
